<svg width="12" height="12" viewBox="0 0 12 12" fill="none" xmlns="http://www.w3.org/2000/svg">
<path d="M9.895 6.6335C9.96063 6.56098 9.99532 6.46568 9.99168 6.36794C9.98804 6.2702 9.94636 6.17775 9.87553 6.1103C9.80469 6.04286 9.7103 6.00576 9.6125 6.00692C9.5147 6.00807 9.42122 6.0474 9.352 6.1165L6.375 9.242V1.875C6.375 1.77554 6.33549 1.68016 6.26517 1.60984C6.19484 1.53951 6.09946 1.5 6 1.5C5.90055 1.5 5.80516 1.53951 5.73484 1.60984C5.66451 1.68016 5.625 1.77554 5.625 1.875V9.242L2.6475 6.1165C2.57828 6.0474 2.4848 6.00807 2.387 6.00692C2.2892 6.00576 2.19481 6.04286 2.12398 6.1103C2.05314 6.17775 2.01146 6.2702 2.00782 6.36794C2.00418 6.46568 2.03888 6.56098 2.1045 6.6335L5.638 10.3435C5.718 10.4275 5.821 10.4775 5.928 10.4935C5.97591 10.5027 6.02516 10.5026 6.073 10.493C6.18343 10.4768 6.28522 10.424 6.362 10.343L9.8955 6.6335H9.895Z" fill="white"/>
</svg>
