<svg width="30" height="30" viewBox="0 0 30 30" fill="none" xmlns="http://www.w3.org/2000/svg">
<rect width="30" height="30" transform="matrix(1.19249e-08 -1 -1 -1.19249e-08 30 30)" fill="black"/>
<path d="M24.2833 14.125L15.8933 22.515C15.6066 22.8016 15.1433 22.8016 14.8566 22.515L6.46329 14.125C6.17662 13.8383 6.17662 13.375 6.46329 13.0883C6.74996 12.8016 7.21329 12.8016 7.49996 13.0883L15.3733 20.9616L23.2466 13.0883C23.5333 12.8016 23.9966 12.8016 24.2833 13.0883C24.57 13.375 24.57 13.8383 24.2833 14.125Z" fill="white"/>
<path d="M24.2833 8.12498L15.8933 16.515C15.6066 16.8016 15.1433 16.8016 14.8566 16.515L6.46329 8.12498C6.17662 7.83831 6.17662 7.37498 6.46329 7.08831C6.74996 6.80165 7.21329 6.80165 7.49996 7.08831L15.3733 14.9616L23.2466 7.08831C23.5333 6.80165 23.9966 6.80165 24.2833 7.08831C24.57 7.37498 24.57 7.83831 24.2833 8.12498Z" fill="white"/>
</svg>
