<svg width="18" height="17" viewBox="0 0 18 17" fill="none" xmlns="http://www.w3.org/2000/svg">
<g clip-path="url(#clip0_401_1942)">
<path d="M7.2405 5.551C7.15801 5.55562 7.08058 5.59229 7.02474 5.65318C6.96889 5.71408 6.93905 5.79439 6.94158 5.87697C6.9441 5.95956 6.9788 6.03789 7.03826 6.09526C7.09772 6.15263 7.17724 6.1845 7.25986 6.18407L10.9045 6.07331L5.43331 11.6853C5.37426 11.745 5.34137 11.8258 5.34188 11.9098C5.34239 11.9938 5.37625 12.0742 5.43602 12.1333C5.49578 12.1923 5.57656 12.2252 5.66058 12.2247C5.74459 12.2242 5.82496 12.1903 5.88401 12.1306L11.3552 6.51859L11.2889 10.1646C11.2894 10.2472 11.3223 10.3264 11.3804 10.3851C11.4384 10.4439 11.5172 10.4776 11.5998 10.4792C11.6824 10.4807 11.7624 10.4499 11.8226 10.3933C11.8828 10.3367 11.9185 10.2589 11.9221 10.1763L12.0014 5.84893C12.0032 5.75096 11.971 5.65976 11.9162 5.58662C11.8929 5.55263 11.8632 5.52349 11.8287 5.50083C11.7528 5.44498 11.6602 5.4163 11.566 5.41939L7.2405 5.551Z" fill="white"/>
</g>
<defs>
<clipPath id="clip0_401_1942">
<rect width="12" height="12" fill="white" transform="translate(10.4453 16.8464) rotate(-141.931)"/>
</clipPath>
</defs>
</svg>
