<svg width="10" height="8" viewBox="0 0 10 8" fill="none" xmlns="http://www.w3.org/2000/svg">
<path d="M5.6335 0.105235C5.56098 0.0396088 5.46568 0.00491553 5.36794 0.00855404C5.2702 0.0121925 5.17775 0.0538747 5.1103 0.124711C5.04286 0.195547 5.00576 0.289932 5.00692 0.387734C5.00807 0.485536 5.0474 0.579015 5.1165 0.648235L8.242 3.62523L0.875 3.62523C0.775544 3.62523 0.680161 3.66474 0.609835 3.73507C0.539509 3.8054 0.5 3.90078 0.5 4.00023C0.5 4.09969 0.539509 4.19507 0.609835 4.2654C0.680161 4.33573 0.775544 4.37523 0.875 4.37523L8.242 4.37523L5.1165 7.35274C5.0474 7.42196 5.00807 7.51543 5.00692 7.61324C5.00576 7.71104 5.04286 7.80542 5.1103 7.87626C5.17775 7.9471 5.2702 7.98878 5.36794 7.99242C5.46568 7.99605 5.56098 7.96136 5.6335 7.89574L9.3435 4.36223C9.4275 4.28223 9.4775 4.17923 9.4935 4.07223C9.50273 4.02433 9.50256 3.97508 9.493 3.92724C9.47683 3.8168 9.424 3.71502 9.343 3.63823L5.6335 0.105235Z" fill="white"/>
</svg>
