<svg width="12" height="12" viewBox="0 0 12 12" fill="none" xmlns="http://www.w3.org/2000/svg">
<path d="M5.3665 9.89477C5.43902 9.96039 5.53432 9.99508 5.63206 9.99145C5.7298 9.98781 5.82225 9.94613 5.8897 9.87529C5.95714 9.80445 5.99424 9.71007 5.99308 9.61227C5.99193 9.51446 5.9526 9.42099 5.8835 9.35177L2.758 6.37477L10.125 6.37477C10.2245 6.37477 10.3198 6.33526 10.3902 6.26493C10.4605 6.1946 10.5 6.09922 10.5 5.99977C10.5 5.90031 10.4605 5.80493 10.3902 5.7346C10.3198 5.66427 10.2245 5.62477 10.125 5.62477L2.758 5.62476L5.8835 2.64726C5.9526 2.57804 5.99193 2.48457 5.99308 2.38676C5.99424 2.28896 5.95714 2.19458 5.8897 2.12374C5.82225 2.0529 5.7298 2.01122 5.63206 2.00758C5.53432 2.00395 5.43902 2.03864 5.3665 2.10426L1.6565 5.63777C1.5725 5.71776 1.5225 5.82076 1.5065 5.92776C1.49727 5.97567 1.49744 6.02492 1.507 6.07276C1.52317 6.1832 1.576 6.28498 1.657 6.36176L5.3665 9.89527L5.3665 9.89477Z" fill="white"/>
</svg>
